<svg width="1281" height="246" fill="none" xmlns="http://www.w3.org/2000/svg"><g clip-path="url(#a)" fill="#FAFAFA"><path d="M1306.86 48.634c-10.6 7.6-8.81 10.73-22.86 12.366 0 14.75-5.6 25.484-13.75 36.25-14 14-26.51 18.482-42.77 16.676 1.36 9.78-11.49 16.629-22.81 20.412-11.41 3.782-23.71 6.952-35.92 5.486-12.22-1.431-24.14-8.758-25.37-18.606-14.81 2.999-30.64 2.215-45.37-1.159-10.26-2.351-20.3-5.997-27.88-11.995-19.45-15.334-17.75-40.381-14.72-62.088-14.77 19.526-48.06 24.195-76.275 20.991-10.598-1.192-21.323-3.34-29.963-8.349-8.64-5.043-14.811-13.494-13.364-21.98-9.832 5.998-23.664 7.532-35.156 3.886-11.491-3.647-20.259-12.336-22.302-22.116-5.065 8.621-20.813 11.075-30.559 5.588-9.747-5.452-12.769-16.766-8.342-25.626 4.426-8.86 15.024-15.096 26.558-17.515 11.534-2.42 23.792-1.364 35.241 1.26.426-8.28 8.342-15.334 17.62-18.98 9.279-3.647 19.834-4.499 30.091-5.316 21.749-1.704 44.349-3.272 64.951 2.555 21.79 6.202 38.69 19.935 54.77 33.26 10.86-14.79 29.46-25.797 50.27-29.818 20.81-4.021 43.62-.988 61.71 8.213 10.35-11.518 28.6-18.163 46.22-16.869 17.67 1.295 34.05 10.53 41.59 23.377 17.02-13.358 47.71-12.983 64.22.75 8.81 7.327 13.41 18.742 7.96 27.943-5.79 9.814-21.75 12.2-32.09 5.896 8.77 12.847 15.15 23.41-1.7 35.508Z"/><path d="M676.857 18.54c4.413 7.286 14.426 11.88 24.101 11.05.254 9.014 9.42 15.99 18.67 20.48 14.766 7.217 31.696 11.223 48.754 11.569 19.094.38 39.122-4.214 52.7-15.576.509 2.245 3.522 3.35 6.153 3.937a84.951 84.951 0 0 0 26.944 1.554c5.007-.518 10.099-1.519 14.257-3.936 4.158-2.418 7.298-6.424 7.044-10.672 6.534 2.21 13.79-1.07 19.561-4.523 2.673-1.59 5.346-3.316 6.831-5.768 1.485-2.452 1.4-5.767-1.018-7.563 11.499-1.001 18.924-11.983 17.651-21.653-1.527-11.672-13.111-21.515-26.689-24.14-13.578-2.624-28.387 1.451-38.655 9.429-1.189-4.42-5.262-7.805-9.505-10.602-14.342-9.463-32.545-14.747-50.791-14.781-18.246-.035-36.491 5.215-50.96 14.643.424-2.556-2.759-4.455-5.644-5.353-13.663-4.248-30.423.138-38.91 10.153-4.116-1.347-8.91-1.658-12.984-.173-4.073 1.485-7.256 4.939-7.213 8.668.042 3.695 3.776 7.183 8.231 7.218-12.432.587-12.559 19.374-8.528 26.039Zm-740 20.122c4.413 7.287 14.426 11.88 24.1 11.05.255 9.014 9.42 15.99 18.67 20.48 14.767 7.217 31.697 11.223 48.755 11.569 19.094.38 39.122-4.214 52.7-15.575.51 2.244 3.522 3.35 6.153 3.936a84.952 84.952 0 0 0 26.944 1.555c5.007-.519 10.099-1.52 14.257-3.937 4.158-2.418 7.298-6.424 7.044-10.671 6.534 2.21 13.79-1.071 19.561-4.524 2.673-1.589 5.346-3.316 6.831-5.768 1.485-2.452 1.4-5.767-1.018-7.563 11.499-1.001 18.924-11.983 17.651-21.653-1.527-11.672-13.111-21.515-26.689-24.14-13.578-2.624-28.387 1.451-38.655 9.429-1.189-4.42-5.262-7.805-9.505-10.602-14.342-9.463-32.545-14.746-50.79-14.781-18.247-.034-36.492 5.215-50.961 14.643.424-2.556-2.759-4.455-5.644-5.353-13.663-4.248-30.424.138-38.91 10.153-4.116-1.347-8.91-1.658-12.984-.173-4.073 1.485-7.256 4.939-7.213 8.668.042 3.695 3.776 7.183 8.231 7.218-12.432.587-12.56 19.374-8.528 26.039Z"/><path d="M729.901 34.884c-10.598 7.6-25.154 10.496-39.199 12.131 9.534 10.7 10.257 25.933 1.788 37.178-8.513 11.246-25.707 17.789-41.966 15.983 1.362 9.78-11.491 16.629-22.813 20.412-11.406 3.782-23.706 6.952-35.922 5.486-12.215-1.431-24.132-8.758-25.366-18.606-14.811 2.999-30.644 2.215-45.37-1.159-10.258-2.351-20.302-5.997-27.878-11.995-19.451-15.334-17.748-40.381-14.726-62.088-14.769 19.526-48.052 24.195-76.27 20.991-10.598-1.192-21.324-3.34-29.964-8.349-8.639-5.043-14.811-13.494-13.364-21.98-9.832 5.998-23.664 7.532-35.155 3.886-11.492-3.647-20.26-12.336-22.303-22.116-5.064 8.621-20.812 11.075-30.559 5.588-9.746-5.452-12.768-16.766-8.342-25.626 4.427-8.86 15.024-15.096 26.559-17.515 11.534-2.42 23.791-1.363 35.24 1.26.426-8.28 8.342-15.334 17.621-18.98 9.278-3.647 19.833-4.499 30.091-5.316 21.749-1.704 44.349-3.272 64.948 2.555 21.792 6.202 38.689 19.935 54.777 33.26 10.853-14.79 29.452-25.797 50.265-29.818 20.812-4.021 43.625-.988 61.714 8.213 10.342-11.518 28.601-18.163 46.221-16.869 17.663 1.296 34.049 10.53 41.583 23.377 17.024-13.358 47.711-12.983 64.225.75 8.81 7.327 13.407 18.742 7.959 27.943-5.789 9.814-21.749 12.2-32.092 5.896 8.768 12.847 15.152 23.41-1.702 35.508Z"/><path d="M519.901 62.268c-10.598 7.599-25.154 10.495-39.199 12.131 9.534 10.7 10.257 25.933 1.788 37.178-8.513 11.246-25.707 17.788-41.966 15.982 1.362 9.781-11.491 16.63-22.813 20.413-11.406 3.782-23.706 6.951-35.922 5.486-12.215-1.431-24.132-8.758-25.366-18.606-14.811 2.999-30.644 2.215-45.37-1.159-10.258-2.351-20.302-5.997-27.878-11.995-19.451-15.335-17.748-40.381-14.726-62.088-14.769 19.526-48.052 24.194-76.27 20.991-10.598-1.192-21.324-3.34-29.964-8.349-8.639-5.043-14.811-13.494-13.364-21.98-9.832 5.998-23.664 7.532-35.155 3.885-11.492-3.646-20.26-12.335-22.303-22.116-5.064 8.622-20.812 11.075-30.559 5.589-9.746-5.452-12.768-16.766-8.342-25.626C56.92 3.144 67.516-3.092 79.051-5.512c11.534-2.42 23.791-1.363 35.24 1.261.426-8.28 8.342-15.334 17.621-18.98 9.278-3.647 19.833-4.499 30.091-5.317 21.749-1.704 44.349-3.271 64.948 2.556 21.792 6.202 38.689 19.935 54.777 33.26 10.853-14.79 29.452-25.797 50.265-29.818 20.812-4.021 43.625-.988 61.714 8.213 10.342-11.519 28.601-18.164 46.221-16.869 17.663 1.295 34.049 10.53 41.583 23.377 17.024-13.358 47.711-12.983 64.225.75 8.81 7.326 13.407 18.742 7.959 27.943-5.789 9.814-21.749 12.2-32.092 5.895 8.768 12.847 15.152 23.411-1.702 35.509Z"/></g><defs><clipPath id="a"><path fill="#fff" d="M0 0h1281v246H0z"/></clipPath></defs></svg>