<svg width="590" height="81" fill="none" xmlns="http://www.w3.org/2000/svg"><mask id="a" maskUnits="userSpaceOnUse" x="37" y="25" width="52" height="50" fill="#000"><path fill="#fff" d="M37 25h52v50H37z"/><path d="M56.861 45.356c.793 5.654.991 10.702.397 14.942A15.885 15.885 0 0 0 63.4 61.51c2.18 0 4.954-.404 7.926-1.01C78.262 59.087 82.82 58.077 85 57.471c-.198.808-.595 1.616-.793 2.827-.198 1.212-.198 2.221-.198 3.23l-11.691 2.424c-3.369.808-6.341 1.01-9.115 1.01-2.775 0-4.954-.404-7.134-1.414-.595 2.221-1.585 4.038-2.973 5.452-.594-.404-1.387-1.01-2.377-1.615a13.49 13.49 0 0 0-2.576-1.212c1.387-1.615 2.576-3.433 3.17-5.654-1.981-1.817-3.567-4.038-5.35-6.865l4.161-2.423c.595 1.211 1.387 2.22 2.18 3.23 0-1.615 0-3.432-.198-5.451l-1.586.404-.198 1.01-5.35-.203A154.48 154.48 0 0 0 47.35 40.51l-4.36 1.01-.99-5.25 6.737-1.414.793-.404 3.963.202c-.595 3.432-1.19 7.27-1.982 11.106l.793-.202.99-.404 3.568.202Zm6.54-8.077-.199-1.01-6.737 1.414-.792-4.24 6.737-1.414-.396-1.818L67.562 29l.396 1.817 7.927-1.615.99 5.25 2.973-.606.792 4.443-2.972.605.99 5.25-7.925 1.616.198 1.01 8.124-1.818.793 4.038-7.927 1.818.199 1.01 9.907-2.02.991 4.442-9.908 2.02.595 2.625-5.549 1.211-.594-2.625-8.719 1.818-.99-4.443 8.718-1.817-.198-1.01-7.134 1.414-.792-4.039 7.133-1.413-.198-1.212-6.935 1.414-.793-4.24 6.936-1.414-.199-1.01-9.313 2.02-.793-4.443 9.116-1.817Zm7.53-2.423-2.378.404.198 1.01 2.378-.405-.198-1.01Zm1.387 6.057-.198-1.01-2.378.607.198 1.01 2.378-.607Z"/></mask><path d="M56.861 45.356c.793 5.654.991 10.702.397 14.942A15.885 15.885 0 0 0 63.4 61.51c2.18 0 4.954-.404 7.926-1.01C78.262 59.087 82.82 58.077 85 57.471c-.198.808-.595 1.616-.793 2.827-.198 1.212-.198 2.221-.198 3.23l-11.691 2.424c-3.369.808-6.341 1.01-9.115 1.01-2.775 0-4.954-.404-7.134-1.414-.595 2.221-1.585 4.038-2.973 5.452-.594-.404-1.387-1.01-2.377-1.615a13.49 13.49 0 0 0-2.576-1.212c1.387-1.615 2.576-3.433 3.17-5.654-1.981-1.817-3.567-4.038-5.35-6.865l4.161-2.423c.595 1.211 1.387 2.22 2.18 3.23 0-1.615 0-3.432-.198-5.451l-1.586.404-.198 1.01-5.35-.203A154.48 154.48 0 0 0 47.35 40.51l-4.36 1.01-.99-5.25 6.737-1.414.793-.404 3.963.202c-.595 3.432-1.19 7.27-1.982 11.106l.793-.202.99-.404 3.568.202Zm6.54-8.077-.199-1.01-6.737 1.414-.792-4.24 6.737-1.414-.396-1.818L67.562 29l.396 1.817 7.927-1.615.99 5.25 2.973-.606.792 4.443-2.972.605.99 5.25-7.925 1.616.198 1.01 8.124-1.818.793 4.038-7.927 1.818.199 1.01 9.907-2.02.991 4.442-9.908 2.02.595 2.625-5.549 1.211-.594-2.625-8.719 1.818-.99-4.443 8.718-1.817-.198-1.01-7.134 1.414-.792-4.039 7.133-1.413-.198-1.212-6.935 1.414-.793-4.24 6.936-1.414-.199-1.01-9.313 2.02-.793-4.443 9.116-1.817Zm7.53-2.423-2.378.404.198 1.01 2.378-.405-.198-1.01Zm1.387 6.057-.198-1.01-2.378.607.198 1.01 2.378-.607Z" fill="#fff"/><path d="M56.861 45.356c.793 5.654.991 10.702.397 14.942A15.885 15.885 0 0 0 63.4 61.51c2.18 0 4.954-.404 7.926-1.01C78.262 59.087 82.82 58.077 85 57.471c-.198.808-.595 1.616-.793 2.827-.198 1.212-.198 2.221-.198 3.23l-11.691 2.424c-3.369.808-6.341 1.01-9.115 1.01-2.775 0-4.954-.404-7.134-1.414-.595 2.221-1.585 4.038-2.973 5.452-.594-.404-1.387-1.01-2.377-1.615a13.49 13.49 0 0 0-2.576-1.212c1.387-1.615 2.576-3.433 3.17-5.654-1.981-1.817-3.567-4.038-5.35-6.865l4.161-2.423c.595 1.211 1.387 2.22 2.18 3.23 0-1.615 0-3.432-.198-5.451l-1.586.404-.198 1.01-5.35-.203A154.48 154.48 0 0 0 47.35 40.51l-4.36 1.01-.99-5.25 6.737-1.414.793-.404 3.963.202c-.595 3.432-1.19 7.27-1.982 11.106l.793-.202.99-.404 3.568.202Zm6.54-8.077-.199-1.01-6.737 1.414-.792-4.24 6.737-1.414-.396-1.818L67.562 29l.396 1.817 7.927-1.615.99 5.25 2.973-.606.792 4.443-2.972.605.99 5.25-7.925 1.616.198 1.01 8.124-1.818.793 4.038-7.927 1.818.199 1.01 9.907-2.02.991 4.442-9.908 2.02.595 2.625-5.549 1.211-.594-2.625-8.719 1.818-.99-4.443 8.718-1.817-.198-1.01-7.134 1.414-.792-4.039 7.133-1.413-.198-1.212-6.935 1.414-.793-4.24 6.936-1.414-.199-1.01-9.313 2.02-.793-4.443 9.116-1.817Zm7.53-2.423-2.378.404.198 1.01 2.378-.405-.198-1.01Zm1.387 6.057-.198-1.01-2.378.607.198 1.01 2.378-.607Z" stroke="#111" stroke-width="8" stroke-linejoin="round" mask="url(#a)"/><mask id="b" maskUnits="userSpaceOnUse" x="80" y="17" width="49" height="50" fill="#000"><path fill="#fff" d="M80 17h49v50H80z"/><path d="M112.384 50.515c1.774.594 3.746.792 5.914.99 2.168.198 4.533.198 6.702.198-.394.594-.986 1.584-1.577 2.574-.592.99-.986 1.98-1.183 2.773-2.365-.198-4.731-.396-6.899-.99-2.168-.595-4.336-1.387-6.11-2.377l.985 6.139-5.519.792-1.183-5.94a27.52 27.52 0 0 1-5.322 4.158c-1.971 1.188-4.14 2.376-6.308 3.168-.591-.594-1.182-1.386-1.97-2.178-.79-.792-1.578-1.386-2.17-1.98 2.17-.594 4.14-1.387 6.112-2.377 1.97-.99 3.548-1.98 5.125-2.97l-11.039 1.782-.591-4.356 15.178-2.376-.198-1.783-1.774-.99-3.153.99c-.986.396-2.366.792-3.943 1.188-1.577.396-3.35.99-5.322 1.585l-1.38-4.357 5.52-1.584-.592-3.168-4.533.792-.592-3.763 14.193-2.178.591 3.763-4.534.594.395 2.574 4.336-1.386.394 1.584c.394-.594.789-1.188.789-1.782v-2.178l-.592-3.96 3.351-.595c-1.182-.594-2.956-1.188-5.322-1.782l.592-.792-4.337.594c.591.594.986 1.386 1.38 1.98l-4.337 1.98c-.394-.99-1.182-1.98-2.168-3.168-.591 1.188-1.38 2.574-2.365 3.762-.592-.396-1.38-.792-2.366-1.188-.985-.396-1.97-.792-2.562-1.188.985-.99 1.97-2.376 2.76-3.96.788-1.584 1.38-2.97 1.773-4.555l5.52.594-.592 1.783 7.885-1.189.591 3.169c.789-.99 1.38-2.178 1.774-3.367L104.894 22l5.519.99c-.197.99-.394 1.584-.394 1.782l10.25-1.584.591 4.357-5.913.99c.591.594 1.183 1.188 1.577 1.782l-4.337 1.98 4.731-.792.986 6.337.197.792v.396c0 .198.197.198.394.198h.394c.197 0 .197 0 .394-.198 0 0 .198-.396.198-.792s0-1.188-.198-2.575c.395.396.986.594 1.774.792.789.199 1.38.397 2.169.595.197 1.98.197 3.366 0 3.96-.197.792-.592 1.386-1.183 1.782-.197.198-.591.396-.986.594-.394.198-.788.198-1.182.396l-1.971.396h-1.774c-.592 0-.986-.396-1.38-.594-.592-.396-.986-1.188-1.183-1.98l-1.774 2.178c-.788-.792-1.774-1.584-3.154-2.574-.197 1.782-.985 3.168-2.168 4.356l1.971-.396.394 1.98 15.178-2.376.592 4.357-12.222 1.386Zm-4.533-20.99c-.789 1.386-1.577 2.574-2.169 3.564l6.111-.99c-.394-.792-1.183-1.782-2.365-2.97l-1.577.396Zm1.774 7.327c.985.396 1.971.99 2.956 1.782l-.394-2.575-4.336.595v.395c0 .397.197.793.197 1.585l1.577-1.782Z"/></mask><path d="M112.384 50.515c1.774.594 3.746.792 5.914.99 2.168.198 4.533.198 6.702.198-.394.594-.986 1.584-1.577 2.574-.592.99-.986 1.98-1.183 2.773-2.365-.198-4.731-.396-6.899-.99-2.168-.595-4.336-1.387-6.11-2.377l.985 6.139-5.519.792-1.183-5.94a27.52 27.52 0 0 1-5.322 4.158c-1.971 1.188-4.14 2.376-6.308 3.168-.591-.594-1.182-1.386-1.97-2.178-.79-.792-1.578-1.386-2.17-1.98 2.17-.594 4.14-1.387 6.112-2.377 1.97-.99 3.548-1.98 5.125-2.97l-11.039 1.782-.591-4.356 15.178-2.376-.198-1.783-1.774-.99-3.153.99c-.986.396-2.366.792-3.943 1.188-1.577.396-3.35.99-5.322 1.585l-1.38-4.357 5.52-1.584-.592-3.168-4.533.792-.592-3.763 14.193-2.178.591 3.763-4.534.594.395 2.574 4.336-1.386.394 1.584c.394-.594.789-1.188.789-1.782v-2.178l-.592-3.96 3.351-.595c-1.182-.594-2.956-1.188-5.322-1.782l.592-.792-4.337.594c.591.594.986 1.386 1.38 1.98l-4.337 1.98c-.394-.99-1.182-1.98-2.168-3.168-.591 1.188-1.38 2.574-2.365 3.762-.592-.396-1.38-.792-2.366-1.188-.985-.396-1.97-.792-2.562-1.188.985-.99 1.97-2.376 2.76-3.96.788-1.584 1.38-2.97 1.773-4.555l5.52.594-.592 1.783 7.885-1.189.591 3.169c.789-.99 1.38-2.178 1.774-3.367L104.894 22l5.519.99c-.197.99-.394 1.584-.394 1.782l10.25-1.584.591 4.357-5.913.99c.591.594 1.183 1.188 1.577 1.782l-4.337 1.98 4.731-.792.986 6.337.197.792v.396c0 .198.197.198.394.198h.394c.197 0 .197 0 .394-.198 0 0 .198-.396.198-.792s0-1.188-.198-2.575c.395.396.986.594 1.774.792.789.199 1.38.397 2.169.595.197 1.98.197 3.366 0 3.96-.197.792-.592 1.386-1.183 1.782-.197.198-.591.396-.986.594-.394.198-.788.198-1.182.396l-1.971.396h-1.774c-.592 0-.986-.396-1.38-.594-.592-.396-.986-1.188-1.183-1.98l-1.774 2.178c-.788-.792-1.774-1.584-3.154-2.574-.197 1.782-.985 3.168-2.168 4.356l1.971-.396.394 1.98 15.178-2.376.592 4.357-12.222 1.386Zm-4.533-20.99c-.789 1.386-1.577 2.574-2.169 3.564l6.111-.99c-.394-.792-1.183-1.782-2.365-2.97l-1.577.396Zm1.774 7.327c.985.396 1.971.99 2.956 1.782l-.394-2.575-4.336.595v.395c0 .397.197.793.197 1.585l1.577-1.782Z" fill="#fff"/><path d="M112.384 50.515c1.774.594 3.746.792 5.914.99 2.168.198 4.533.198 6.702.198-.394.594-.986 1.584-1.577 2.574-.592.99-.986 1.98-1.183 2.773-2.365-.198-4.731-.396-6.899-.99-2.168-.595-4.336-1.387-6.11-2.377l.985 6.139-5.519.792-1.183-5.94a27.52 27.52 0 0 1-5.322 4.158c-1.971 1.188-4.14 2.376-6.308 3.168-.591-.594-1.182-1.386-1.97-2.178-.79-.792-1.578-1.386-2.17-1.98 2.17-.594 4.14-1.387 6.112-2.377 1.97-.99 3.548-1.98 5.125-2.97l-11.039 1.782-.591-4.356 15.178-2.376-.198-1.783-1.774-.99-3.153.99c-.986.396-2.366.792-3.943 1.188-1.577.396-3.35.99-5.322 1.585l-1.38-4.357 5.52-1.584-.592-3.168-4.533.792-.592-3.763 14.193-2.178.591 3.763-4.534.594.395 2.574 4.336-1.386.394 1.584c.394-.594.789-1.188.789-1.782v-2.178l-.592-3.96 3.351-.595c-1.182-.594-2.956-1.188-5.322-1.782l.592-.792-4.337.594c.591.594.986 1.386 1.38 1.98l-4.337 1.98c-.394-.99-1.182-1.98-2.168-3.168-.591 1.188-1.38 2.574-2.365 3.762-.592-.396-1.38-.792-2.366-1.188-.985-.396-1.97-.792-2.562-1.188.985-.99 1.97-2.376 2.76-3.96.788-1.584 1.38-2.97 1.773-4.555l5.52.594-.592 1.783 7.885-1.189.591 3.169c.789-.99 1.38-2.178 1.774-3.367L104.894 22l5.519.99c-.197.99-.394 1.584-.394 1.782l10.25-1.584.591 4.357-5.913.99c.591.594 1.183 1.188 1.577 1.782l-4.337 1.98 4.731-.792.986 6.337.197.792v.396c0 .198.197.198.394.198h.394c.197 0 .197 0 .394-.198 0 0 .198-.396.198-.792s0-1.188-.198-2.575c.395.396.986.594 1.774.792.789.199 1.38.397 2.169.595.197 1.98.197 3.366 0 3.96-.197.792-.592 1.386-1.183 1.782-.197.198-.591.396-.986.594-.394.198-.788.198-1.182.396l-1.971.396h-1.774c-.592 0-.986-.396-1.38-.594-.592-.396-.986-1.188-1.183-1.98l-1.774 2.178c-.788-.792-1.774-1.584-3.154-2.574-.197 1.782-.985 3.168-2.168 4.356l1.971-.396.394 1.98 15.178-2.376.592 4.357-12.222 1.386Zm-4.533-20.99c-.789 1.386-1.577 2.574-2.169 3.564l6.111-.99c-.394-.792-1.183-1.782-2.365-2.97l-1.577.396Zm1.774 7.327c.985.396 1.971.99 2.956 1.782l-.394-2.575-4.336.595v.395c0 .397.197.793.197 1.585l1.577-1.782Z" stroke="#111" stroke-width="8" stroke-linejoin="round" mask="url(#b)"/><mask id="c" maskUnits="userSpaceOnUse" x="120" y="12" width="50" height="49" fill="#000"><path fill="#fff" d="M120 12h50v49h-50z"/><path d="M152.905 45.713c3.485 1.188 7.38 1.782 12.095 1.782-.615.594-1.23 1.584-1.845 2.574-.615 1.188-1.23 2.178-1.435 2.97-5.125-.593-9.43-1.98-13.53-4.356l.82 6.337-5.945.792-.82-6.139a64.858 64.858 0 0 1-5.535 4.159c-2.05 1.188-4.305 2.376-6.56 3.168-.615-.594-1.23-1.386-2.05-2.178-.82-.792-1.64-1.584-2.255-1.98 2.05-.594 4.1-1.387 6.15-2.179 2.05-.792 3.69-1.782 5.33-2.772L126.87 49.08l-.615-4.554 15.17-1.782-.205-1.189-11.48 1.189-.41-3.96 11.48-1.387-.205-1.188-13.53 1.584-.615-4.356 7.175-.792c-.205-.594-.615-1.387-1.23-2.377l-7.79.99-.615-4.554 4.92-.594c-.82-1.386-1.64-2.772-2.665-4.159l4.715-2.574c.615.792 1.435 1.584 2.05 2.575.615.99 1.23 1.782 1.435 2.376l-1.64.99 2.87-.396-.82-6.139 5.535-.594.82 6.139 2.05-.198-.82-6.139 5.535-.594.82 6.139 2.665-.396-1.23-.198c.41-.793.615-1.783 1.025-2.97L151.88 17l6.355.594c-1.025 1.98-1.845 3.762-2.46 4.95l4.715-.396.615 4.555-7.38.792-1.435 2.772 7.38-.792.615 4.357-13.735 1.584.205 1.188 11.89-1.386.615 3.96-11.89 1.386.205 1.188 15.58-1.782.615 4.555-10.865 1.188Zm-14.35-16.436c.615.792 1.025 1.584 1.435 2.377l-.41.198 6.97-.793c.205-.99.615-1.782.615-2.772l-8.61.99Z"/></mask><path d="M152.905 45.713c3.485 1.188 7.38 1.782 12.095 1.782-.615.594-1.23 1.584-1.845 2.574-.615 1.188-1.23 2.178-1.435 2.97-5.125-.593-9.43-1.98-13.53-4.356l.82 6.337-5.945.792-.82-6.139a64.858 64.858 0 0 1-5.535 4.159c-2.05 1.188-4.305 2.376-6.56 3.168-.615-.594-1.23-1.386-2.05-2.178-.82-.792-1.64-1.584-2.255-1.98 2.05-.594 4.1-1.387 6.15-2.179 2.05-.792 3.69-1.782 5.33-2.772L126.87 49.08l-.615-4.554 15.17-1.782-.205-1.189-11.48 1.189-.41-3.96 11.48-1.387-.205-1.188-13.53 1.584-.615-4.356 7.175-.792c-.205-.594-.615-1.387-1.23-2.377l-7.79.99-.615-4.554 4.92-.594c-.82-1.386-1.64-2.772-2.665-4.159l4.715-2.574c.615.792 1.435 1.584 2.05 2.575.615.99 1.23 1.782 1.435 2.376l-1.64.99 2.87-.396-.82-6.139 5.535-.594.82 6.139 2.05-.198-.82-6.139 5.535-.594.82 6.139 2.665-.396-1.23-.198c.41-.793.615-1.783 1.025-2.97L151.88 17l6.355.594c-1.025 1.98-1.845 3.762-2.46 4.95l4.715-.396.615 4.555-7.38.792-1.435 2.772 7.38-.792.615 4.357-13.735 1.584.205 1.188 11.89-1.386.615 3.96-11.89 1.386.205 1.188 15.58-1.782.615 4.555-10.865 1.188Zm-14.35-16.436c.615.792 1.025 1.584 1.435 2.377l-.41.198 6.97-.793c.205-.99.615-1.782.615-2.772l-8.61.99Z" fill="#fff"/><path d="M152.905 45.713c3.485 1.188 7.38 1.782 12.095 1.782-.615.594-1.23 1.584-1.845 2.574-.615 1.188-1.23 2.178-1.435 2.97-5.125-.593-9.43-1.98-13.53-4.356l.82 6.337-5.945.792-.82-6.139a64.858 64.858 0 0 1-5.535 4.159c-2.05 1.188-4.305 2.376-6.56 3.168-.615-.594-1.23-1.386-2.05-2.178-.82-.792-1.64-1.584-2.255-1.98 2.05-.594 4.1-1.387 6.15-2.179 2.05-.792 3.69-1.782 5.33-2.772L126.87 49.08l-.615-4.554 15.17-1.782-.205-1.189-11.48 1.189-.41-3.96 11.48-1.387-.205-1.188-13.53 1.584-.615-4.356 7.175-.792c-.205-.594-.615-1.387-1.23-2.377l-7.79.99-.615-4.554 4.92-.594c-.82-1.386-1.64-2.772-2.665-4.159l4.715-2.574c.615.792 1.435 1.584 2.05 2.575.615.99 1.23 1.782 1.435 2.376l-1.64.99 2.87-.396-.82-6.139 5.535-.594.82 6.139 2.05-.198-.82-6.139 5.535-.594.82 6.139 2.665-.396-1.23-.198c.41-.793.615-1.783 1.025-2.97L151.88 17l6.355.594c-1.025 1.98-1.845 3.762-2.46 4.95l4.715-.396.615 4.555-7.38.792-1.435 2.772 7.38-.792.615 4.357-13.735 1.584.205 1.188 11.89-1.386.615 3.96-11.89 1.386.205 1.188 15.58-1.782.615 4.555-10.865 1.188Zm-14.35-16.436c.615.792 1.025 1.584 1.435 2.377l-.41.198 6.97-.793c.205-.99.615-1.782.615-2.772l-8.61.99Z" stroke="#111" stroke-width="8" stroke-linejoin="round" mask="url(#c)"/><mask id="d" maskUnits="userSpaceOnUse" x="162" y="10" width="45" height="49" fill="#000"><path fill="#fff" d="M162 10h45v49h-45z"/><path d="M192.766 32.384c1.377.808 2.952 1.616 4.723 2.222 1.771.606 3.543 1.01 5.511 1.414-.591.606-1.181 1.414-1.772 2.627-.59 1.01-1.18 2.02-1.574 2.828-2.165-.606-4.33-1.212-6.101-2.223l1.181 12.122-5.904.606-1.378-14.344 3.149-.202c-1.771-1.212-3.346-2.626-4.527-4.242l-3.739.404c-1.181 1.818-2.362 3.434-3.74 4.848l3.346-.404.197 3.03c.197 2.425-.197 4.85-1.378 7.071-1.18 2.223-3.345 4.243-6.888 5.859a9.424 9.424 0 0 0-1.968-2.222c-.787-.808-1.574-1.616-2.362-2.222 2.756-1.213 4.527-2.425 5.511-3.839.787-1.414 1.181-2.828 1.181-4.444v-.808c-1.771 1.414-3.74 2.828-6.101 3.838-.394-.606-1.181-1.414-1.968-2.424a9.358 9.358 0 0 0-2.165-2.02c1.771-.607 3.345-1.617 4.92-2.627 1.574-1.01 2.952-2.02 4.133-3.232l-5.314.404-1.574-17.778L196.899 14l1.574 17.778-5.707.606Zm-18.5-11.515.197 2.02 5.707-.606-.197-2.02-5.707.606Zm.59 6.464.197 2.02 5.707-.606-.196-2.02-5.708.606Zm16.532-6.06-.197-2.02-5.707.606.197 2.02 5.707-.606Zm-5.117 7.07 5.707-.606-.196-2.02-5.708.606.197 2.02Z"/></mask><path d="M192.766 32.384c1.377.808 2.952 1.616 4.723 2.222 1.771.606 3.543 1.01 5.511 1.414-.591.606-1.181 1.414-1.772 2.627-.59 1.01-1.18 2.02-1.574 2.828-2.165-.606-4.33-1.212-6.101-2.223l1.181 12.122-5.904.606-1.378-14.344 3.149-.202c-1.771-1.212-3.346-2.626-4.527-4.242l-3.739.404c-1.181 1.818-2.362 3.434-3.74 4.848l3.346-.404.197 3.03c.197 2.425-.197 4.85-1.378 7.071-1.18 2.223-3.345 4.243-6.888 5.859a9.424 9.424 0 0 0-1.968-2.222c-.787-.808-1.574-1.616-2.362-2.222 2.756-1.213 4.527-2.425 5.511-3.839.787-1.414 1.181-2.828 1.181-4.444v-.808c-1.771 1.414-3.74 2.828-6.101 3.838-.394-.606-1.181-1.414-1.968-2.424a9.358 9.358 0 0 0-2.165-2.02c1.771-.607 3.345-1.617 4.92-2.627 1.574-1.01 2.952-2.02 4.133-3.232l-5.314.404-1.574-17.778L196.899 14l1.574 17.778-5.707.606Zm-18.5-11.515.197 2.02 5.707-.606-.197-2.02-5.707.606Zm.59 6.464.197 2.02 5.707-.606-.196-2.02-5.708.606Zm16.532-6.06-.197-2.02-5.707.606.197 2.02 5.707-.606Zm-5.117 7.07 5.707-.606-.196-2.02-5.708.606.197 2.02Z" fill="#fff"/><path d="M192.766 32.384c1.377.808 2.952 1.616 4.723 2.222 1.771.606 3.543 1.01 5.511 1.414-.591.606-1.181 1.414-1.772 2.627-.59 1.01-1.18 2.02-1.574 2.828-2.165-.606-4.33-1.212-6.101-2.223l1.181 12.122-5.904.606-1.378-14.344 3.149-.202c-1.771-1.212-3.346-2.626-4.527-4.242l-3.739.404c-1.181 1.818-2.362 3.434-3.74 4.848l3.346-.404.197 3.03c.197 2.425-.197 4.85-1.378 7.071-1.18 2.223-3.345 4.243-6.888 5.859a9.424 9.424 0 0 0-1.968-2.222c-.787-.808-1.574-1.616-2.362-2.222 2.756-1.213 4.527-2.425 5.511-3.839.787-1.414 1.181-2.828 1.181-4.444v-.808c-1.771 1.414-3.74 2.828-6.101 3.838-.394-.606-1.181-1.414-1.968-2.424a9.358 9.358 0 0 0-2.165-2.02c1.771-.607 3.345-1.617 4.92-2.627 1.574-1.01 2.952-2.02 4.133-3.232l-5.314.404-1.574-17.778L196.899 14l1.574 17.778-5.707.606Zm-18.5-11.515.197 2.02 5.707-.606-.197-2.02-5.707.606Zm.59 6.464.197 2.02 5.707-.606-.196-2.02-5.708.606Zm16.532-6.06-.197-2.02-5.707.606.197 2.02 5.707-.606Zm-5.117 7.07 5.707-.606-.196-2.02-5.708.606.197 2.02Z" stroke="#111" stroke-width="8" stroke-linejoin="round" mask="url(#d)"/><mask id="e" maskUnits="userSpaceOnUse" x="199" y="9" width="45" height="44" fill="#000"><path fill="#fff" d="M199 9h45v44h-45z"/><path d="m235.2 27.562.2 2.629 3.2-.202.4 4.854-3.4.404.4 6.674c0 1.214 0 2.427-.2 3.034-.2.809-.8 1.416-1.6 1.82-.8.405-1.6.81-2.6.81-1 .201-2.2.404-3.8.404-.2-.81-.4-1.618-.8-2.63-.4-1.01-.8-1.82-1.2-2.629 1 0 2.4 0 4-.202.2 0 .4 0 .6-.202.2 0 .2-.202.2-.405l-.4-6.472-6 .405c1.8 1.82 3.2 3.236 3.8 4.45l-4 3.033c-.4-.607-1-1.618-1.8-2.427-.8-1.011-1.6-2.022-2.4-2.831l2.6-2.023-3.8.202-.2-1.82-2.2 1.011.8 13.147-4.8.404-.8-11.73-5 1.82-1.6-5.056a96.34 96.34 0 0 0 6.2-2.023l-.4-6.067-1.8.202c-.2 1.82-.6 3.236-1 4.247-.4-.202-1-.607-1.8-1.011-.8-.405-1.4-.809-2-1.011.8-2.63 1.2-6.472 1-11.73l4.6.404c0 1.416 0 2.63-.2 4.045h1l-.4-6.674 4.8-.405.4 6.674 2.6-.202.2 3.236 7.6-.404-.2-2.225-6 .404-.4-4.854 6-.404-.2-2.832L230 13l.2 3.034 6.2-.405.4 4.854-6.2.405.2 2.224 7.8-.606.4 4.854-3.8.202Zm-5 3.034-.2-2.63-12.4.81-.2-3.034-2 .202.4 4.652 2.8-1.012.4 1.82 11.2-.808Z"/></mask><path d="m235.2 27.562.2 2.629 3.2-.202.4 4.854-3.4.404.4 6.674c0 1.214 0 2.427-.2 3.034-.2.809-.8 1.416-1.6 1.82-.8.405-1.6.81-2.6.81-1 .201-2.2.404-3.8.404-.2-.81-.4-1.618-.8-2.63-.4-1.01-.8-1.82-1.2-2.629 1 0 2.4 0 4-.202.2 0 .4 0 .6-.202.2 0 .2-.202.2-.405l-.4-6.472-6 .405c1.8 1.82 3.2 3.236 3.8 4.45l-4 3.033c-.4-.607-1-1.618-1.8-2.427-.8-1.011-1.6-2.022-2.4-2.831l2.6-2.023-3.8.202-.2-1.82-2.2 1.011.8 13.147-4.8.404-.8-11.73-5 1.82-1.6-5.056a96.34 96.34 0 0 0 6.2-2.023l-.4-6.067-1.8.202c-.2 1.82-.6 3.236-1 4.247-.4-.202-1-.607-1.8-1.011-.8-.405-1.4-.809-2-1.011.8-2.63 1.2-6.472 1-11.73l4.6.404c0 1.416 0 2.63-.2 4.045h1l-.4-6.674 4.8-.405.4 6.674 2.6-.202.2 3.236 7.6-.404-.2-2.225-6 .404-.4-4.854 6-.404-.2-2.832L230 13l.2 3.034 6.2-.405.4 4.854-6.2.405.2 2.224 7.8-.606.4 4.854-3.8.202Zm-5 3.034-.2-2.63-12.4.81-.2-3.034-2 .202.4 4.652 2.8-1.012.4 1.82 11.2-.808Z" fill="#fff"/><path d="m235.2 27.562.2 2.629 3.2-.202.4 4.854-3.4.404.4 6.674c0 1.214 0 2.427-.2 3.034-.2.809-.8 1.416-1.6 1.82-.8.405-1.6.81-2.6.81-1 .201-2.2.404-3.8.404-.2-.81-.4-1.618-.8-2.63-.4-1.01-.8-1.82-1.2-2.629 1 0 2.4 0 4-.202.2 0 .4 0 .6-.202.2 0 .2-.202.2-.405l-.4-6.472-6 .405c1.8 1.82 3.2 3.236 3.8 4.45l-4 3.033c-.4-.607-1-1.618-1.8-2.427-.8-1.011-1.6-2.022-2.4-2.831l2.6-2.023-3.8.202-.2-1.82-2.2 1.011.8 13.147-4.8.404-.8-11.73-5 1.82-1.6-5.056a96.34 96.34 0 0 0 6.2-2.023l-.4-6.067-1.8.202c-.2 1.82-.6 3.236-1 4.247-.4-.202-1-.607-1.8-1.011-.8-.405-1.4-.809-2-1.011.8-2.63 1.2-6.472 1-11.73l4.6.404c0 1.416 0 2.63-.2 4.045h1l-.4-6.674 4.8-.405.4 6.674 2.6-.202.2 3.236 7.6-.404-.2-2.225-6 .404-.4-4.854 6-.404-.2-2.832L230 13l.2 3.034 6.2-.405.4 4.854-6.2.405.2 2.224 7.8-.606.4 4.854-3.8.202Zm-5 3.034-.2-2.63-12.4.81-.2-3.034-2 .202.4 4.652 2.8-1.012.4 1.82 11.2-.808Z" stroke="#111" stroke-width="8" stroke-linejoin="round" mask="url(#e)"/><mask id="f" maskUnits="userSpaceOnUse" x="236" y="9" width="45" height="42" fill="#000"><path fill="#fff" d="M236 9h45v42h-45z"/><path d="M254.279 14.61c-.804 2.414-2.011 4.828-3.419 7.242l1.006 24.947-5.229.201-.604-17.503c-1.005 1.207-1.81 2.414-2.815 3.219l-1.408-2.817c-.604-1.207-1.207-2.011-1.81-2.615 1.81-1.81 3.62-3.822 5.229-6.438 1.609-2.615 3.017-5.23 3.821-7.846l5.229 1.61Zm14.682 26.556c.603 0 1.005-.201 1.206-.604.201-.402.403-1.006.604-1.81 0-.805.201-2.214.201-4.024.603.402 1.408.804 2.413 1.207 1.006.402 1.81.603 2.615.805-.201 2.213-.402 4.023-.805 5.23-.402 1.208-1.005 2.213-1.81 2.817-.804.604-2.011 1.006-3.62 1.006l-5.631.201c-1.609 0-3.017-.201-4.023-.603-1.005-.403-1.608-1.208-2.011-2.213-.402-1.006-.603-2.616-.804-4.426l-.805-25.35 5.229-.2.403 11.869c2.614-1.61 5.229-3.621 8.044-6.036l4.023 4.427c-3.419 2.414-7.442 4.828-11.866 7.041l.402 8.45c0 .804 0 1.408.201 1.61 0 .401.201.603.402.603s.604.2 1.207.2l4.425-.2Z"/></mask><path d="M254.279 14.61c-.804 2.414-2.011 4.828-3.419 7.242l1.006 24.947-5.229.201-.604-17.503c-1.005 1.207-1.81 2.414-2.815 3.219l-1.408-2.817c-.604-1.207-1.207-2.011-1.81-2.615 1.81-1.81 3.62-3.822 5.229-6.438 1.609-2.615 3.017-5.23 3.821-7.846l5.229 1.61Zm14.682 26.556c.603 0 1.005-.201 1.206-.604.201-.402.403-1.006.604-1.81 0-.805.201-2.214.201-4.024.603.402 1.408.804 2.413 1.207 1.006.402 1.81.603 2.615.805-.201 2.213-.402 4.023-.805 5.23-.402 1.208-1.005 2.213-1.81 2.817-.804.604-2.011 1.006-3.62 1.006l-5.631.201c-1.609 0-3.017-.201-4.023-.603-1.005-.403-1.608-1.208-2.011-2.213-.402-1.006-.603-2.616-.804-4.426l-.805-25.35 5.229-.2.403 11.869c2.614-1.61 5.229-3.621 8.044-6.036l4.023 4.427c-3.419 2.414-7.442 4.828-11.866 7.041l.402 8.45c0 .804 0 1.408.201 1.61 0 .401.201.603.402.603s.604.2 1.207.2l4.425-.2Z" fill="#fff"/><path d="M254.279 14.61c-.804 2.414-2.011 4.828-3.419 7.242l1.006 24.947-5.229.201-.604-17.503c-1.005 1.207-1.81 2.414-2.815 3.219l-1.408-2.817c-.604-1.207-1.207-2.011-1.81-2.615 1.81-1.81 3.62-3.822 5.229-6.438 1.609-2.615 3.017-5.23 3.821-7.846l5.229 1.61Zm14.682 26.556c.603 0 1.005-.201 1.206-.604.201-.402.403-1.006.604-1.81 0-.805.201-2.214.201-4.024.603.402 1.408.804 2.413 1.207 1.006.402 1.81.603 2.615.805-.201 2.213-.402 4.023-.805 5.23-.402 1.208-1.005 2.213-1.81 2.817-.804.604-2.011 1.006-3.62 1.006l-5.631.201c-1.609 0-3.017-.201-4.023-.603-1.005-.403-1.608-1.208-2.011-2.213-.402-1.006-.603-2.616-.804-4.426l-.805-25.35 5.229-.2.403 11.869c2.614-1.61 5.229-3.621 8.044-6.036l4.023 4.427c-3.419 2.414-7.442 4.828-11.866 7.041l.402 8.45c0 .804 0 1.408.201 1.61 0 .401.201.603.402.603s.604.2 1.207.2l4.425-.2Z" stroke="#111" stroke-width="8" stroke-linejoin="round" mask="url(#f)"/><mask id="g" maskUnits="userSpaceOnUse" x="275" y="13" width="33" height="36" fill="#000"><path fill="#fff" d="M275 13h33v36h-33z"/><path d="M298.643 29.518c0-1.81-.596-3.419-1.389-4.826-.794-1.207-1.984-2.01-3.572-2.212 0 2.413-.198 4.625-.397 7.038-.198 2.412-.595 4.624-1.19 6.635-.595 2.01-1.389 3.62-2.381 4.826-.992 1.206-2.183 1.81-3.77 1.81-1.19 0-2.182-.403-3.174-1.006s-1.985-1.81-2.58-3.418c-.793-1.609-1.19-3.82-1.19-6.435 0-2.613.595-5.026 1.587-7.238.992-2.212 2.381-4.021 3.968-5.228 1.786-1.407 3.572-2.212 5.754-2.413a14.068 14.068 0 0 1 6.548 1.006c1.984.804 3.571 2.211 4.96 4.222 1.191 2.01 1.984 4.625 2.183 7.842 0 2.815-.199 5.027-.992 7.037-.794 2.011-1.786 3.419-2.976 4.625-1.191 1.206-2.58 2.01-3.969 2.413-1.389.402-2.778.804-3.77.804v-5.429c1.985 0 3.572-1.005 4.762-2.614 1.191-2.01 1.786-4.423 1.588-7.44Zm-12.5 7.238c.595 0 .992-.402 1.389-1.407.396-1.006.595-2.212.793-3.62.199-1.608.397-3.016.397-4.825 0-1.609.198-3.217 0-4.424-.992.402-1.984 1.005-2.579 2.01-.596 1.006-1.191 2.213-1.588 3.419a11.52 11.52 0 0 0-.595 3.62c0 1.809.198 3.216.595 4.02.397.805.794 1.207 1.588 1.207Z"/></mask><path d="M298.643 29.518c0-1.81-.596-3.419-1.389-4.826-.794-1.207-1.984-2.01-3.572-2.212 0 2.413-.198 4.625-.397 7.038-.198 2.412-.595 4.624-1.19 6.635-.595 2.01-1.389 3.62-2.381 4.826-.992 1.206-2.183 1.81-3.77 1.81-1.19 0-2.182-.403-3.174-1.006s-1.985-1.81-2.58-3.418c-.793-1.609-1.19-3.82-1.19-6.435 0-2.613.595-5.026 1.587-7.238.992-2.212 2.381-4.021 3.968-5.228 1.786-1.407 3.572-2.212 5.754-2.413a14.068 14.068 0 0 1 6.548 1.006c1.984.804 3.571 2.211 4.96 4.222 1.191 2.01 1.984 4.625 2.183 7.842 0 2.815-.199 5.027-.992 7.037-.794 2.011-1.786 3.419-2.976 4.625-1.191 1.206-2.58 2.01-3.969 2.413-1.389.402-2.778.804-3.77.804v-5.429c1.985 0 3.572-1.005 4.762-2.614 1.191-2.01 1.786-4.423 1.588-7.44Zm-12.5 7.238c.595 0 .992-.402 1.389-1.407.396-1.006.595-2.212.793-3.62.199-1.608.397-3.016.397-4.825 0-1.609.198-3.217 0-4.424-.992.402-1.984 1.005-2.579 2.01-.596 1.006-1.191 2.213-1.588 3.419a11.52 11.52 0 0 0-.595 3.62c0 1.809.198 3.216.595 4.02.397.805.794 1.207 1.588 1.207Z" fill="#fff"/><path d="M298.643 29.518c0-1.81-.596-3.419-1.389-4.826-.794-1.207-1.984-2.01-3.572-2.212 0 2.413-.198 4.625-.397 7.038-.198 2.412-.595 4.624-1.19 6.635-.595 2.01-1.389 3.62-2.381 4.826-.992 1.206-2.183 1.81-3.77 1.81-1.19 0-2.182-.403-3.174-1.006s-1.985-1.81-2.58-3.418c-.793-1.609-1.19-3.82-1.19-6.435 0-2.613.595-5.026 1.587-7.238.992-2.212 2.381-4.021 3.968-5.228 1.786-1.407 3.572-2.212 5.754-2.413a14.068 14.068 0 0 1 6.548 1.006c1.984.804 3.571 2.211 4.96 4.222 1.191 2.01 1.984 4.625 2.183 7.842 0 2.815-.199 5.027-.992 7.037-.794 2.011-1.786 3.419-2.976 4.625-1.191 1.206-2.58 2.01-3.969 2.413-1.389.402-2.778.804-3.77.804v-5.429c1.985 0 3.572-1.005 4.762-2.614 1.191-2.01 1.786-4.423 1.588-7.44Zm-12.5 7.238c.595 0 .992-.402 1.389-1.407.396-1.006.595-2.212.793-3.62.199-1.608.397-3.016.397-4.825 0-1.609.198-3.217 0-4.424-.992.402-1.984 1.005-2.579 2.01-.596 1.006-1.191 2.213-1.588 3.419a11.52 11.52 0 0 0-.595 3.62c0 1.809.198 3.216.595 4.02.397.805.794 1.207 1.588 1.207Z" stroke="#111" stroke-width="8" stroke-linejoin="round" mask="url(#g)"/><mask id="h" maskUnits="userSpaceOnUse" x="302" y="5" width="47" height="45" fill="#000"><path fill="#fff" d="M302 5h47v45h-47z"/><path d="M320.186 40.169c0 1.206-.197 2.211-.394 2.815-.197.603-.787 1.206-1.377 1.608-.591.403-1.378.604-2.165.604-.787.2-1.772.2-2.952.2-.197-1.206-.591-2.412-1.181-4.222-.394.804-.787 1.407-1.181 2.212-.394-.402-.984-1.006-1.771-1.609-.788-.603-1.575-1.206-2.165-1.608.59-1.006 1.181-2.212 1.771-3.62.59-1.408.984-3.016 1.181-4.625l4.92 1.206c-.394 2.413-1.181 4.826-2.362 7.24h1.968c.197 0 .394 0 .394-.201 0 0 .197-.202.197-.403l.197-8.847-5.314-.202.197-11.462 15.744.201-.196 11.463h-5.117l-.394 9.25Zm6.888-26.946v5.027l-18.697-.402V12.82l6.495.2V9l5.511.201v4.022h6.691ZM314.872 24.08v2.213l5.314.2v-2.211l-5.314-.202Zm24.404 16.088c.197 0 .197 0 .394-.202.197-.2.197-.402.197-.804 0-.603.197-1.609.197-2.815V34.94c.393.402.984.805 1.771 1.207.787.402 1.378.804 2.165 1.005-.197 2.614-.394 4.424-.591 5.43-.196 1.005-.787 1.81-1.377 2.212-.591.402-1.378.804-2.362.603h-2.165c-.59 0-1.181-.201-1.574-.402-.591-.201-.984-.403-1.181-.805-.394-.402-.591-1.005-.591-1.407 0-.403-.196-1.61-.196-2.816l.196-5.429c-1.377 4.826-3.542 8.647-6.494 11.462-.591-.603-1.181-1.206-2.165-1.81-.984-.603-1.772-1.206-2.362-1.608 1.181-1.006 2.165-2.212 2.952-3.419l-3.542 1.207c-.197-.805-.394-2.011-.788-3.218-.393-1.407-.787-2.413-1.18-3.62l4.329-1.407c.788 1.81 1.378 3.62 1.968 5.63 1.969-3.62 3.149-8.244 3.543-13.875h-3.543l.197-5.429h3.543l.197-9.25 5.313.201-.196 9.25 8.069.201v5.43l-8.069-.202-.197 1.408h3.542l-.196 14.076v.604c0 .2.196.2.393.2l-.197-.2Zm0-21.919c-.196-1.005-.59-2.01-1.18-3.217-.591-1.207-1.181-2.212-1.969-3.218l4.33-1.81c.787 1.006 1.378 2.011 1.968 3.017.591 1.206 1.181 2.212 1.378 3.016l-4.527 2.212Z"/></mask><path d="M320.186 40.169c0 1.206-.197 2.211-.394 2.815-.197.603-.787 1.206-1.377 1.608-.591.403-1.378.604-2.165.604-.787.2-1.772.2-2.952.2-.197-1.206-.591-2.412-1.181-4.222-.394.804-.787 1.407-1.181 2.212-.394-.402-.984-1.006-1.771-1.609-.788-.603-1.575-1.206-2.165-1.608.59-1.006 1.181-2.212 1.771-3.62.59-1.408.984-3.016 1.181-4.625l4.92 1.206c-.394 2.413-1.181 4.826-2.362 7.24h1.968c.197 0 .394 0 .394-.201 0 0 .197-.202.197-.403l.197-8.847-5.314-.202.197-11.462 15.744.201-.196 11.463h-5.117l-.394 9.25Zm6.888-26.946v5.027l-18.697-.402V12.82l6.495.2V9l5.511.201v4.022h6.691ZM314.872 24.08v2.213l5.314.2v-2.211l-5.314-.202Zm24.404 16.088c.197 0 .197 0 .394-.202.197-.2.197-.402.197-.804 0-.603.197-1.609.197-2.815V34.94c.393.402.984.805 1.771 1.207.787.402 1.378.804 2.165 1.005-.197 2.614-.394 4.424-.591 5.43-.196 1.005-.787 1.81-1.377 2.212-.591.402-1.378.804-2.362.603h-2.165c-.59 0-1.181-.201-1.574-.402-.591-.201-.984-.403-1.181-.805-.394-.402-.591-1.005-.591-1.407 0-.403-.196-1.61-.196-2.816l.196-5.429c-1.377 4.826-3.542 8.647-6.494 11.462-.591-.603-1.181-1.206-2.165-1.81-.984-.603-1.772-1.206-2.362-1.608 1.181-1.006 2.165-2.212 2.952-3.419l-3.542 1.207c-.197-.805-.394-2.011-.788-3.218-.393-1.407-.787-2.413-1.18-3.62l4.329-1.407c.788 1.81 1.378 3.62 1.968 5.63 1.969-3.62 3.149-8.244 3.543-13.875h-3.543l.197-5.429h3.543l.197-9.25 5.313.201-.196 9.25 8.069.201v5.43l-8.069-.202-.197 1.408h3.542l-.196 14.076v.604c0 .2.196.2.393.2l-.197-.2Zm0-21.919c-.196-1.005-.59-2.01-1.18-3.217-.591-1.207-1.181-2.212-1.969-3.218l4.33-1.81c.787 1.006 1.378 2.011 1.968 3.017.591 1.206 1.181 2.212 1.378 3.016l-4.527 2.212Z" fill="#fff"/><path d="M320.186 40.169c0 1.206-.197 2.211-.394 2.815-.197.603-.787 1.206-1.377 1.608-.591.403-1.378.604-2.165.604-.787.2-1.772.2-2.952.2-.197-1.206-.591-2.412-1.181-4.222-.394.804-.787 1.407-1.181 2.212-.394-.402-.984-1.006-1.771-1.609-.788-.603-1.575-1.206-2.165-1.608.59-1.006 1.181-2.212 1.771-3.62.59-1.408.984-3.016 1.181-4.625l4.92 1.206c-.394 2.413-1.181 4.826-2.362 7.24h1.968c.197 0 .394 0 .394-.201 0 0 .197-.202.197-.403l.197-8.847-5.314-.202.197-11.462 15.744.201-.196 11.463h-5.117l-.394 9.25Zm6.888-26.946v5.027l-18.697-.402V12.82l6.495.2V9l5.511.201v4.022h6.691ZM314.872 24.08v2.213l5.314.2v-2.211l-5.314-.202Zm24.404 16.088c.197 0 .197 0 .394-.202.197-.2.197-.402.197-.804 0-.603.197-1.609.197-2.815V34.94c.393.402.984.805 1.771 1.207.787.402 1.378.804 2.165 1.005-.197 2.614-.394 4.424-.591 5.43-.196 1.005-.787 1.81-1.377 2.212-.591.402-1.378.804-2.362.603h-2.165c-.59 0-1.181-.201-1.574-.402-.591-.201-.984-.403-1.181-.805-.394-.402-.591-1.005-.591-1.407 0-.403-.196-1.61-.196-2.816l.196-5.429c-1.377 4.826-3.542 8.647-6.494 11.462-.591-.603-1.181-1.206-2.165-1.81-.984-.603-1.772-1.206-2.362-1.608 1.181-1.006 2.165-2.212 2.952-3.419l-3.542 1.207c-.197-.805-.394-2.011-.788-3.218-.393-1.407-.787-2.413-1.18-3.62l4.329-1.407c.788 1.81 1.378 3.62 1.968 5.63 1.969-3.62 3.149-8.244 3.543-13.875h-3.543l.197-5.429h3.543l.197-9.25 5.313.201-.196 9.25 8.069.201v5.43l-8.069-.202-.197 1.408h3.542l-.196 14.076v.604c0 .2.196.2.393.2l-.197-.2Zm0-21.919c-.196-1.005-.59-2.01-1.18-3.217-.591-1.207-1.181-2.212-1.969-3.218l4.33-1.81c.787 1.006 1.378 2.011 1.968 3.017.591 1.206 1.181 2.212 1.378 3.016l-4.527 2.212Z" stroke="#111" stroke-width="8" stroke-linejoin="round" mask="url(#h)"/><mask id="i" maskUnits="userSpaceOnUse" x="342" y="5" width="45" height="47" fill="#000"><path fill="#fff" d="M342 5h45v47h-45z"/><path d="M346 42.28c1.22-1.43 2.439-3.27 4.066-5.517a110.547 110.547 0 0 0 4.066-6.333l4.066 4.086c-2.237 4.086-4.676 8.172-7.319 11.85L346 42.28Zm7.522-12.871c-1.22-1.022-3.66-2.452-7.116-4.495l3.253-4.086c3.456 1.839 5.896 3.269 7.319 4.086l-3.456 4.495Zm2.033-10.828a101.74 101.74 0 0 0-4.879-3.473l-1.83-1.226L352.302 10l.813.409a240.542 240.542 0 0 1 6.302 3.677l-3.862 4.495Zm17.89 8.785-.203 4.086 7.928.408-.813 16.14-5.286-.204v-1.43l-10.571-.409v1.634l-5.083-.204.814-16.14 7.725.409.203-4.086-9.961-.409.203-5.516 9.961.409.204-3.678c-2.44.205-4.676.409-7.116.409 0-.613-.203-1.43-.61-2.452-.203-1.021-.609-1.838-.813-2.451 3.456-.205 6.912-.409 9.962-1.022 3.253-.408 5.895-1.226 7.928-1.838l4.066 4.698c-2.439.818-5.082 1.43-8.335 2.043l-.203 4.495 9.555.409-.204 5.516-9.351-.817Zm1.829 13.892.204-4.29-10.572-.409-.203 4.29 10.571.41Z"/></mask><path d="M346 42.28c1.22-1.43 2.439-3.27 4.066-5.517a110.547 110.547 0 0 0 4.066-6.333l4.066 4.086c-2.237 4.086-4.676 8.172-7.319 11.85L346 42.28Zm7.522-12.871c-1.22-1.022-3.66-2.452-7.116-4.495l3.253-4.086c3.456 1.839 5.896 3.269 7.319 4.086l-3.456 4.495Zm2.033-10.828a101.74 101.74 0 0 0-4.879-3.473l-1.83-1.226L352.302 10l.813.409a240.542 240.542 0 0 1 6.302 3.677l-3.862 4.495Zm17.89 8.785-.203 4.086 7.928.408-.813 16.14-5.286-.204v-1.43l-10.571-.409v1.634l-5.083-.204.814-16.14 7.725.409.203-4.086-9.961-.409.203-5.516 9.961.409.204-3.678c-2.44.205-4.676.409-7.116.409 0-.613-.203-1.43-.61-2.452-.203-1.021-.609-1.838-.813-2.451 3.456-.205 6.912-.409 9.962-1.022 3.253-.408 5.895-1.226 7.928-1.838l4.066 4.698c-2.439.818-5.082 1.43-8.335 2.043l-.203 4.495 9.555.409-.204 5.516-9.351-.817Zm1.829 13.892.204-4.29-10.572-.409-.203 4.29 10.571.41Z" fill="#fff"/><path d="M346 42.28c1.22-1.43 2.439-3.27 4.066-5.517a110.547 110.547 0 0 0 4.066-6.333l4.066 4.086c-2.237 4.086-4.676 8.172-7.319 11.85L346 42.28Zm7.522-12.871c-1.22-1.022-3.66-2.452-7.116-4.495l3.253-4.086c3.456 1.839 5.896 3.269 7.319 4.086l-3.456 4.495Zm2.033-10.828a101.74 101.74 0 0 0-4.879-3.473l-1.83-1.226L352.302 10l.813.409a240.542 240.542 0 0 1 6.302 3.677l-3.862 4.495Zm17.89 8.785-.203 4.086 7.928.408-.813 16.14-5.286-.204v-1.43l-10.571-.409v1.634l-5.083-.204.814-16.14 7.725.409.203-4.086-9.961-.409.203-5.516 9.961.409.204-3.678c-2.44.205-4.676.409-7.116.409 0-.613-.203-1.43-.61-2.452-.203-1.021-.609-1.838-.813-2.451 3.456-.205 6.912-.409 9.962-1.022 3.253-.408 5.895-1.226 7.928-1.838l4.066 4.698c-2.439.818-5.082 1.43-8.335 2.043l-.203 4.495 9.555.409-.204 5.516-9.351-.817Zm1.829 13.892.204-4.29-10.572-.409-.203 4.29 10.571.41Z" stroke="#111" stroke-width="8" stroke-linejoin="round" mask="url(#i)"/><mask id="j" maskUnits="userSpaceOnUse" x="380" y="8" width="46" height="48" fill="#000"><path fill="#fff" d="M380 8h46v48h-46z"/><path d="m422 26.702-.199 4.083-25.264-2.041.199-4.084 9.748.816v-1.02l-7.361-.613v-.204l-2.983 1.225c-.199-.613-.398-1.634-.796-2.859l-1.989 27.566-4.974-.409 1.791-23.277c-.398 2.042-.796 4.084-1.393 5.717L385 29.97c.398-1.226.795-2.86 1.193-4.697.398-1.837.796-3.675.995-5.513l3.382.613.596-8.372 4.974.408-.398 6.126 2.188-.817.398 1.225.199-3.88 8.553.613.199-2.45 5.57.409-.199 2.45 8.753.612-.199 3.88-8.753-.613v1.021l7.758.613-.596 3.88-7.758-.613v1.02l10.145.818Zm-3.979 19.602c0 1.225-.398 2.246-.597 2.858-.397.613-.795 1.225-1.591 1.43-.796.408-1.591.408-2.387.408s-2.188 0-3.78-.204c0-.613-.199-1.43-.397-2.45-.199-1.021-.398-1.838-.796-2.45.597 0 1.79.203 3.581.408h.596c.199 0 .199-.205.199-.409v-.408l-10.145-.817-.398 5.717-5.172-.408 1.393-20.01 20.489 1.633-.995 14.702ZM406.683 20.78v-1.02l-8.554-.613.597 1.633.397 1.021.199-1.43 7.361.41Zm-3.581 20.01 10.145.817v-1.02l-10.145-.817v1.02Zm10.543-5.512L403.5 34.46v1.225l10.145.817v-1.225Z"/></mask><path d="m422 26.702-.199 4.083-25.264-2.041.199-4.084 9.748.816v-1.02l-7.361-.613v-.204l-2.983 1.225c-.199-.613-.398-1.634-.796-2.859l-1.989 27.566-4.974-.409 1.791-23.277c-.398 2.042-.796 4.084-1.393 5.717L385 29.97c.398-1.226.795-2.86 1.193-4.697.398-1.837.796-3.675.995-5.513l3.382.613.596-8.372 4.974.408-.398 6.126 2.188-.817.398 1.225.199-3.88 8.553.613.199-2.45 5.57.409-.199 2.45 8.753.612-.199 3.88-8.753-.613v1.021l7.758.613-.596 3.88-7.758-.613v1.02l10.145.818Zm-3.979 19.602c0 1.225-.398 2.246-.597 2.858-.397.613-.795 1.225-1.591 1.43-.796.408-1.591.408-2.387.408s-2.188 0-3.78-.204c0-.613-.199-1.43-.397-2.45-.199-1.021-.398-1.838-.796-2.45.597 0 1.79.203 3.581.408h.596c.199 0 .199-.205.199-.409v-.408l-10.145-.817-.398 5.717-5.172-.408 1.393-20.01 20.489 1.633-.995 14.702ZM406.683 20.78v-1.02l-8.554-.613.597 1.633.397 1.021.199-1.43 7.361.41Zm-3.581 20.01 10.145.817v-1.02l-10.145-.817v1.02Zm10.543-5.512L403.5 34.46v1.225l10.145.817v-1.225Z" fill="#fff"/><path d="m422 26.702-.199 4.083-25.264-2.041.199-4.084 9.748.816v-1.02l-7.361-.613v-.204l-2.983 1.225c-.199-.613-.398-1.634-.796-2.859l-1.989 27.566-4.974-.409 1.791-23.277c-.398 2.042-.796 4.084-1.393 5.717L385 29.97c.398-1.226.795-2.86 1.193-4.697.398-1.837.796-3.675.995-5.513l3.382.613.596-8.372 4.974.408-.398 6.126 2.188-.817.398 1.225.199-3.88 8.553.613.199-2.45 5.57.409-.199 2.45 8.753.612-.199 3.88-8.753-.613v1.021l7.758.613-.596 3.88-7.758-.613v1.02l10.145.818Zm-3.979 19.602c0 1.225-.398 2.246-.597 2.858-.397.613-.795 1.225-1.591 1.43-.796.408-1.591.408-2.387.408s-2.188 0-3.78-.204c0-.613-.199-1.43-.397-2.45-.199-1.021-.398-1.838-.796-2.45.597 0 1.79.203 3.581.408h.596c.199 0 .199-.205.199-.409v-.408l-10.145-.817-.398 5.717-5.172-.408 1.393-20.01 20.489 1.633-.995 14.702ZM406.683 20.78v-1.02l-8.554-.613.597 1.633.397 1.021.199-1.43 7.361.41Zm-3.581 20.01 10.145.817v-1.02l-10.145-.817v1.02Zm10.543-5.512L403.5 34.46v1.225l10.145.817v-1.225Z" stroke="#111" stroke-width="8" stroke-linejoin="round" mask="url(#j)"/><mask id="k" maskUnits="userSpaceOnUse" x="418" y="10" width="46" height="48" fill="#000"><path fill="#fff" d="M418 10h46v48h-46z"/><path d="m435.604 25.583 6.099.588-.407 4.507-2.642-.196 1.219.392c-.203.392-.61.98-.813 1.176-.203.392-.406.588-.406.784-.204.392-.407.784-.814 1.176l2.44.196-.407 4.508-5.489-.588-.203 2.155 5.082.588-.406 4.508-5.083-.588-.609 6.467-5.286-.588.61-6.467-5.489-.588.406-4.508 5.489.589.204-2.156-5.693-.588.407-4.508 2.44.196c-.204-1.372-.407-2.548-.814-3.723l1.22-.196-3.659-.392.406-4.508 6.709.588.203-1.96-5.285-.588.406-4.507 5.286.588.407-2.94 5.285.588-.203 3.528 4.676.392-.407 4.507-4.676-.392-.203 1.96Zm-2.033 7.84c.61-.98 1.017-2.157 1.423-3.333l-4.879-.587c.407 1.567.61 2.743.813 3.723l-1.219.196 5.082.588-1.22-.588Zm25.819.587c-1.22 4.704-2.846 8.623-5.083 11.759 1.424 1.764 2.847 3.136 4.676 4.311-.61.392-1.423.98-2.236 1.764-.813.784-1.423 1.568-2.033 2.156-1.423-1.176-2.846-2.352-3.863-3.92-1.423 1.372-2.642 2.352-4.066 3.136a10.338 10.338 0 0 0-2.032-2.744l-.204 2.548-5.082-.588 3.659-34.1L460 20.096l-.813 7.055c-.204 1.176-.407 1.96-.814 2.744-.406.587-1.016 1.175-1.829 1.371-.813.196-1.627.392-2.643.392-1.017 0-2.44-.196-4.066-.196 0-.588-.203-1.567-.407-2.351-.203-.98-.406-1.764-.61-2.352 1.017.196 2.44.392 4.27.588h.61c.203 0 .203-.196.203-.392l.203-2.156-6.505-.588-.814 8.231 8.539.784.813-.196 3.253.98Zm-14.434 14.11c1.22-.783 2.236-1.763 3.253-2.743-1.017-2.156-1.627-4.116-2.237-6.468l-1.016 9.212Zm4.879-11.758c.407 1.568.813 2.94 1.423 4.507.813-1.371 1.423-2.743 1.83-4.115l-3.253-.392Z"/></mask><path d="m435.604 25.583 6.099.588-.407 4.507-2.642-.196 1.219.392c-.203.392-.61.98-.813 1.176-.203.392-.406.588-.406.784-.204.392-.407.784-.814 1.176l2.44.196-.407 4.508-5.489-.588-.203 2.155 5.082.588-.406 4.508-5.083-.588-.609 6.467-5.286-.588.61-6.467-5.489-.588.406-4.508 5.489.589.204-2.156-5.693-.588.407-4.508 2.44.196c-.204-1.372-.407-2.548-.814-3.723l1.22-.196-3.659-.392.406-4.508 6.709.588.203-1.96-5.285-.588.406-4.507 5.286.588.407-2.94 5.285.588-.203 3.528 4.676.392-.407 4.507-4.676-.392-.203 1.96Zm-2.033 7.84c.61-.98 1.017-2.157 1.423-3.333l-4.879-.587c.407 1.567.61 2.743.813 3.723l-1.219.196 5.082.588-1.22-.588Zm25.819.587c-1.22 4.704-2.846 8.623-5.083 11.759 1.424 1.764 2.847 3.136 4.676 4.311-.61.392-1.423.98-2.236 1.764-.813.784-1.423 1.568-2.033 2.156-1.423-1.176-2.846-2.352-3.863-3.92-1.423 1.372-2.642 2.352-4.066 3.136a10.338 10.338 0 0 0-2.032-2.744l-.204 2.548-5.082-.588 3.659-34.1L460 20.096l-.813 7.055c-.204 1.176-.407 1.96-.814 2.744-.406.587-1.016 1.175-1.829 1.371-.813.196-1.627.392-2.643.392-1.017 0-2.44-.196-4.066-.196 0-.588-.203-1.567-.407-2.351-.203-.98-.406-1.764-.61-2.352 1.017.196 2.44.392 4.27.588h.61c.203 0 .203-.196.203-.392l.203-2.156-6.505-.588-.814 8.231 8.539.784.813-.196 3.253.98Zm-14.434 14.11c1.22-.783 2.236-1.763 3.253-2.743-1.017-2.156-1.627-4.116-2.237-6.468l-1.016 9.212Zm4.879-11.758c.407 1.568.813 2.94 1.423 4.507.813-1.371 1.423-2.743 1.83-4.115l-3.253-.392Z" fill="#fff"/><path d="m435.604 25.583 6.099.588-.407 4.507-2.642-.196 1.219.392c-.203.392-.61.98-.813 1.176-.203.392-.406.588-.406.784-.204.392-.407.784-.814 1.176l2.44.196-.407 4.508-5.489-.588-.203 2.155 5.082.588-.406 4.508-5.083-.588-.609 6.467-5.286-.588.61-6.467-5.489-.588.406-4.508 5.489.589.204-2.156-5.693-.588.407-4.508 2.44.196c-.204-1.372-.407-2.548-.814-3.723l1.22-.196-3.659-.392.406-4.508 6.709.588.203-1.96-5.285-.588.406-4.507 5.286.588.407-2.94 5.285.588-.203 3.528 4.676.392-.407 4.507-4.676-.392-.203 1.96Zm-2.033 7.84c.61-.98 1.017-2.157 1.423-3.333l-4.879-.587c.407 1.567.61 2.743.813 3.723l-1.219.196 5.082.588-1.22-.588Zm25.819.587c-1.22 4.704-2.846 8.623-5.083 11.759 1.424 1.764 2.847 3.136 4.676 4.311-.61.392-1.423.98-2.236 1.764-.813.784-1.423 1.568-2.033 2.156-1.423-1.176-2.846-2.352-3.863-3.92-1.423 1.372-2.642 2.352-4.066 3.136a10.338 10.338 0 0 0-2.032-2.744l-.204 2.548-5.082-.588 3.659-34.1L460 20.096l-.813 7.055c-.204 1.176-.407 1.96-.814 2.744-.406.587-1.016 1.175-1.829 1.371-.813.196-1.627.392-2.643.392-1.017 0-2.44-.196-4.066-.196 0-.588-.203-1.567-.407-2.351-.203-.98-.406-1.764-.61-2.352 1.017.196 2.44.392 4.27.588h.61c.203 0 .203-.196.203-.392l.203-2.156-6.505-.588-.814 8.231 8.539.784.813-.196 3.253.98Zm-14.434 14.11c1.22-.783 2.236-1.763 3.253-2.743-1.017-2.156-1.627-4.116-2.237-6.468l-1.016 9.212Zm4.879-11.758c.407 1.568.813 2.94 1.423 4.507.813-1.371 1.423-2.743 1.83-4.115l-3.253-.392Z" stroke="#111" stroke-width="8" stroke-linejoin="round" mask="url(#k)"/><mask id="l" maskUnits="userSpaceOnUse" x="458" y="18" width="39" height="42" fill="#000"><path fill="#fff" d="M458 18h39v42h-39z"/><path d="m471.923 44.341-6.084-.79 1.217-8.695-4.056-.593.811-6.323 4.056.593.811-5.533 6.084.79-.811 5.533 7.706.988.811-5.73 6.084.79-.811 5.73 4.259.594-.811 6.323-4.462-.593-.811 5.533c-.406 2.767-1.217 4.94-2.637 6.719-1.419 1.778-3.042 2.964-4.867 3.952-1.825.79-3.853 1.58-5.475 1.778-1.825.395-3.245.593-4.462.593h-1.825l.811-6.323h1.217c.811 0 1.825-.198 3.042-.198 1.217-.198 2.231-.593 3.448-.988 1.014-.593 2.028-1.186 3.042-2.174 1.014-.988 1.419-2.173 1.825-3.754l.811-5.533-7.706-.988-1.217 8.3Z"/></mask><path d="m471.923 44.341-6.084-.79 1.217-8.695-4.056-.593.811-6.323 4.056.593.811-5.533 6.084.79-.811 5.533 7.706.988.811-5.73 6.084.79-.811 5.73 4.259.594-.811 6.323-4.462-.593-.811 5.533c-.406 2.767-1.217 4.94-2.637 6.719-1.419 1.778-3.042 2.964-4.867 3.952-1.825.79-3.853 1.58-5.475 1.778-1.825.395-3.245.593-4.462.593h-1.825l.811-6.323h1.217c.811 0 1.825-.198 3.042-.198 1.217-.198 2.231-.593 3.448-.988 1.014-.593 2.028-1.186 3.042-2.174 1.014-.988 1.419-2.173 1.825-3.754l.811-5.533-7.706-.988-1.217 8.3Z" fill="#fff"/><path d="m471.923 44.341-6.084-.79 1.217-8.695-4.056-.593.811-6.323 4.056.593.811-5.533 6.084.79-.811 5.533 7.706.988.811-5.73 6.084.79-.811 5.73 4.259.594-.811 6.323-4.462-.593-.811 5.533c-.406 2.767-1.217 4.94-2.637 6.719-1.419 1.778-3.042 2.964-4.867 3.952-1.825.79-3.853 1.58-5.475 1.778-1.825.395-3.245.593-4.462.593h-1.825l.811-6.323h1.217c.811 0 1.825-.198 3.042-.198 1.217-.198 2.231-.593 3.448-.988 1.014-.593 2.028-1.186 3.042-2.174 1.014-.988 1.419-2.173 1.825-3.754l.811-5.533-7.706-.988-1.217 8.3Z" stroke="#111" stroke-width="8" stroke-linejoin="round" mask="url(#l)"/><mask id="m" maskUnits="userSpaceOnUse" x="488" y="25" width="39" height="42" fill="#000"><path fill="#fff" d="M488 25h39v42h-39z"/><path d="M515.609 29 523 30.222c-1.437 2.241-3.285 4.074-5.133 5.908-2.053 1.833-3.695 3.463-5.337 4.685L509.245 62l-6.57-1.019 2.669-16.296c-2.258 1.426-4.516 2.445-6.569 3.056-2.053.61-3.696 1.222-4.928 1.426-1.231.203-1.847.407-1.847.407l1.026-6.518s.821-.204 2.259-.408c1.437-.407 3.284-1.018 5.543-1.833 2.258-1.019 4.721-2.445 7.39-4.278 2.464-2.037 4.927-4.481 7.391-7.537Z"/></mask><path d="M515.609 29 523 30.222c-1.437 2.241-3.285 4.074-5.133 5.908-2.053 1.833-3.695 3.463-5.337 4.685L509.245 62l-6.57-1.019 2.669-16.296c-2.258 1.426-4.516 2.445-6.569 3.056-2.053.61-3.696 1.222-4.928 1.426-1.231.203-1.847.407-1.847.407l1.026-6.518s.821-.204 2.259-.408c1.437-.407 3.284-1.018 5.543-1.833 2.258-1.019 4.721-2.445 7.39-4.278 2.464-2.037 4.927-4.481 7.391-7.537Z" fill="#fff"/><path d="M515.609 29 523 30.222c-1.437 2.241-3.285 4.074-5.133 5.908-2.053 1.833-3.695 3.463-5.337 4.685L509.245 62l-6.57-1.019 2.669-16.296c-2.258 1.426-4.516 2.445-6.569 3.056-2.053.61-3.696 1.222-4.928 1.426-1.231.203-1.847.407-1.847.407l1.026-6.518s.821-.204 2.259-.408c1.437-.407 3.284-1.018 5.543-1.833 2.258-1.019 4.721-2.445 7.39-4.278 2.464-2.037 4.927-4.481 7.391-7.537Z" stroke="#111" stroke-width="8" stroke-linejoin="round" mask="url(#m)"/><mask id="n" maskUnits="userSpaceOnUse" x="518" y="26" width="35" height="44" fill="#000"><path fill="#fff" d="M518 26h35v44h-35z"/><path d="m549 45.8-1.2 6.2-16.4-3.2-3.2 16.2-6.2-1.2 6.4-32.8 6.2 1.2-2 10.6 16.4 3Z"/></mask><path d="m549 45.8-1.2 6.2-16.4-3.2-3.2 16.2-6.2-1.2 6.4-32.8 6.2 1.2-2 10.6 16.4 3Z" fill="#fff"/><path d="m549 45.8-1.2 6.2-16.4-3.2-3.2 16.2-6.2-1.2 6.4-32.8 6.2 1.2-2 10.6 16.4 3Z" stroke="#111" stroke-width="8" stroke-linejoin="round" mask="url(#n)"/></svg>