<svg width="626" height="128" fill="none" xmlns="http://www.w3.org/2000/svg"><g filter="url(#a)" clip-path="url(#b)"><g filter="url(#c)"><rect x="77.183" y="15.592" width="544.937" height="90" rx="14.38" fill="#F63C74"/></g><path d="M207.931 54.383h14.426c-2.962-2.231-5.617-4.732-7.386-7.117-1.654 2.347-4.117 4.847-7.04 7.117Zm-1.885 4.193v-2.808a44.39 44.39 0 0 1-6.502 3.847c-.538-1.116-1.731-2.847-2.693-3.847 6.54-2.886 12.657-8.348 15.542-12.888h4.77c4.078 5.655 10.195 10.041 16.273 12.195-1.154 1.193-2.154 2.847-2.962 4.194-2.116-1-4.347-2.27-6.463-3.732v3.039h-17.965Zm-6.809 7.425v-4.232h31.814v4.232h-17.234c-1.116 2.27-2.386 4.654-3.54 6.809 3.693-.116 7.656-.27 11.58-.423-1.193-1.385-2.501-2.77-3.77-3.924l4.039-2.116c3.424 3 7.002 7.001 8.81 9.887l-4.27 2.577c-.385-.73-.924-1.539-1.539-2.385-9.041.5-18.543.885-25.083 1.193l-.615-4.463 5.809-.192A73.83 73.83 0 0 0 208.162 66h-8.925Zm63.244-15.888v-2.5h-15.542v2.5h15.542Zm4.886-6.079v9.618h-25.044v-9.618h25.044ZM245.131 67.31V69h18.85v-1.69h-18.85Zm0-4.54v1.616h18.85V62.77h-18.85Zm0-4.578v1.654h18.85v-1.654h-18.85Zm23.582 13.888h-6.232c3.616 1.077 7.655 2.462 10.31 3.54l-4.04 3.23c-2.962-1.384-8.271-3.27-12.348-4.462l3.231-2.308h-10.502l2.962 2.077c-3.116 1.808-8.04 3.655-11.926 4.617-.846-.962-2.423-2.385-3.462-3.27 3.347-.731 7.309-2.116 9.925-3.424h-6.039V55.075h28.121V72.08Zm30.083-2.347h-8.925c.847 1.308 1.539 2.924 1.847 4.078l-1.462.423h7.579l-1.039-.23c.654-1.155 1.462-2.886 2-4.27Zm-11.233-7.04v3.424h13.118v-3.424h-13.118Zm14.388 7.04 1.5.308c-.808 1.577-1.577 3.078-2.231 4.193h9.656v3.77h-33.084v-3.77h9.31c-.385-1.27-1.039-2.808-1.77-4l2-.5h-4.193V59.075h22.274v10.656h-3.462Zm6.27-22.081 3.347 2.385c-1.538 1.346-3.308 2.77-4.962 3.924 1.846 1.346 3.885 2.5 6.04 3.346-1.039.847-2.347 2.617-3.04 3.809-3.077-1.385-5.847-3.385-8.232-5.809v1.577h-14.157v-1.308a33.83 33.83 0 0 1-8.694 6.079c-.616-1-1.808-2.578-2.732-3.347 2.232-.924 4.463-2.309 6.502-3.963-1.077-1.077-2.732-2.346-4.116-3.231l2.5-2.5c1.462.846 3.27 2.038 4.347 3.115a24.135 24.135 0 0 0 2.885-3.808h-7.886v-3.693h10.079l.77-.193 2.962 1.54c-1.039 2.808-2.539 5.308-4.347 7.5h9.886c-2.115-2.615-3.885-5.616-5.27-8.886l3.924-1.23c.577 1.346 1.231 2.654 2.039 3.885 1.423-1.154 2.847-2.5 3.847-3.655l3.462 2.462a70.592 70.592 0 0 1-5.27 4.001 29.357 29.357 0 0 0 1.808 1.962c1.577-1.231 3.231-2.731 4.308-3.962Zm12.349 4.731h8.117c-1.077-1.577-2.769-3.731-4.385-5.27a36.364 36.364 0 0 1-3.732 5.27Zm10.002 18.966.077.77c1.924-1.116 4.463-2.732 6.963-4.386l1.385 3.462a170.507 170.507 0 0 1-6.924 5.001l-1.27-2.193.116 1.116c-4.771 1-9.849 2.077-13.734 2.808l-.846-4.154c1.615-.231 3.539-.539 5.655-.885v-10.04h-5.232V59h5.232v-2.808h-3.386V54.46c-.23.23-.5.461-.731.692-.577-.885-1.846-2.385-2.731-2.962 3.232-2.731 5.463-6.347 6.655-9.31h3.77c2.27 1.885 5.078 4.617 6.425 6.617l-2.424 2.885h.346v3.809h-3.962v2.808h4.77v3.847h-4.77v9.31l4.616-.808Zm16.658-4.27-1.808-1.193c1.616 2.847 3.924 5.54 7.04 7.156-.924.808-2.27 2.577-2.924 3.77-2.731-1.77-4.809-4.54-6.309-7.425v5.04c0 1.923-.269 3-1.462 3.616-1.192.654-2.693.73-4.847.73-.115-1.153-.577-2.77-1.077-3.962 1.077.077 2.231.039 2.616.039.423 0 .538-.116.538-.5V59.27h-7.924v-3.886h13.387v-1.962h-10.695V49.96h10.695v-2.08h-11.541v-3.77h15.773v11.272h2.846v3.886h-8.309v1.269c.385 1.308.885 2.731 1.577 4.116 1.193-1.308 2.616-3.193 3.463-4.616l3.577 2.193c-1.539 1.77-3.27 3.577-4.616 4.847Zm-30.084-2.04 2.924-.73c.616 2.116 1.154 4.847 1.347 6.617l-3.078.846c-.077-1.846-.615-4.616-1.193-6.732Zm12.003 5.964-2.77-.77c.5-1.692 1.116-4.424 1.347-6.232l3.308.808c-.692 2.154-1.308 4.616-1.885 6.194Zm2.116-8.464 3.001-1.923c1.538 1.346 3.231 3.385 3.962 4.847l-3.193 2.116c-.654-1.423-2.308-3.54-3.77-5.04Zm33.919-10.44a46.132 46.132 0 0 0-.383 3.912c-.117 3.177-.353 9.767-.353 13.414 0 2.972 1.766 3.942 4.06 3.942 4.854 0 7.943-2.794 10.061-6l2.677 3.235c-1.883 2.824-6.06 6.766-12.767 6.766-4.825 0-7.943-2.118-7.943-7.148 0-3.942.294-11.68.294-14.21 0-1.382-.118-2.794-.382-3.97l4.736.058Zm20.585 3.088c1.176-.03 2.324-.088 2.912-.147 2.442-.206 7.296-.647 12.679-1.118 3.03-.235 6.266-.441 8.325-.5l.03 3.766c-1.589.029-4.119.029-5.678.382-3.559.941-6.207 4.766-6.207 8.266 0 4.825 4.53 6.59 9.502 6.855l-1.383 4.03c-6.148-.412-11.973-3.736-11.973-10.09 0-4.236 2.383-7.59 4.354-9.09-2.765.294-8.767.941-12.179 1.676l-.382-4.03Zm40.714 5.001 2.412-.117c1.059-2.883 2.119-6.678 2.677-9.561l3.884.676c-.942 2.913-2.06 6.12-3.148 8.679 1.706-.089 3.501-.206 5.325-.295a42.76 42.76 0 0 0-1.913-3.089l2.766-1.411c1.824 2.47 3.765 5.736 4.471 7.972l-3.03 1.618a15.798 15.798 0 0 0-.735-2.03c-4.384.353-9.002.677-12.356.912l-.353-3.354Zm-3.295-.618H420.6a305.372 305.372 0 0 1-1.53 6.384c.765.47 1.559 1 2.353 1.56.853-2.266 1.412-4.943 1.765-7.944Zm1.383-3.294 2.089.323c-.324 5.354-1.118 9.62-2.442 13.032 1.294 1.06 2.412 2.119 3.148 3.06l-2.089 2.795c-.618-.824-1.53-1.795-2.589-2.766a16.073 16.073 0 0 1-5.324 5.384c-.501-.883-1.442-2.148-2.119-2.795 1.942-1.03 3.56-2.648 4.796-4.795a36.347 36.347 0 0 0-1.795-1.353l-.294 1.03-2.824-1.53c.706-2.413 1.5-5.678 2.236-9.09h-2.148v-3.207h2.824c.412-2.03.794-4.03 1.089-5.854l3.294.323a206.746 206.746 0 0 1-1.117 5.53h2.677l.588-.087Zm13.268 12.59h-6.178v4.825h6.178v-4.824Zm-9.473 9.12V65.718h12.944v12.15h-3.471v-1.03h-6.178v1.147h-3.295Zm36.478-25.623c-.235.794-.5 2.236-.676 2.971-.089.383-.177.736-.265 1.118 4.619 1.06 7.678 4.795 7.678 9.943 0 6.237-4.442 9.797-10.561 10.738l-2.236-3.413c6.443-.529 9.002-3.853 9.002-7.53 0-3.266-1.824-5.708-4.766-6.502-1.029 3.413-2.324 6.796-4 9.355.529.618 1.059 1.236 1.618 1.765l-2.972 2.354a17.362 17.362 0 0 1-1-1.148c-1.971 2.148-3.618 3.119-5.795 3.119-2.442 0-4.678-2.06-4.678-5.855 0-3.353 1.677-6.942 4.354-9.296-.294-.794-.529-1.588-.794-2.383-.324-1.059-.647-2-1.177-3.06l3.854-1.205c.176.97.412 1.941.647 2.824.147.559.324 1.177.53 1.794 2.235-1.117 4.412-1.676 6.677-1.765.118-.5.206-.97.265-1.412.147-.853.236-2.118.236-2.794l4.059.382Zm-15.209 16.621c0 1.442.618 2.354 1.677 2.354 1.059 0 2.148-.912 3.236-2.236-.941-1.442-1.883-3.442-2.736-5.648-1.383 1.618-2.177 3.706-2.177 5.53Zm5.031-7.825c.676 1.824 1.412 3.53 2.118 4.707 1.059-1.883 1.941-4.177 2.618-6.354-1.795.206-3.354.823-4.736 1.647Zm31.389 10.796c0 1.089 1.206 1.824 2.971 1.824.618 0 1.177-.029 1.706-.088-.176-1.912-1.265-3.148-2.853-3.148-1.118 0-1.824.677-1.824 1.412Zm-5.001-18.945c.823.118 1.853.147 2.677.147 1.559 0 7.854-.117 9.531-.264 1.206-.118 1.883-.206 2.236-.324l1.912 2.618c-.677.441-1.383.853-2.059 1.353-1.589 1.118-4.678 3.707-6.531 5.178a11.49 11.49 0 0 1 2.795-.324c5.001 0 8.796 3.119 8.796 7.414 0 4.648-3.53 8.325-10.65 8.325-4.089 0-7.178-1.883-7.178-4.825 0-2.382 2.148-4.589 5.266-4.589 3.648 0 5.854 2.236 6.266 5.03 1.618-.852 2.442-2.206 2.442-4 0-2.648-2.648-4.442-6.119-4.442-4.501 0-7.443 2.383-10.59 5.972l-2.678-2.766c2.089-1.677 5.649-4.677 7.384-6.119 1.648-1.353 4.707-3.824 6.149-5.089-1.501.03-5.56.206-7.119.294a47.95 47.95 0 0 0-2.413.236l-.117-3.825Z" fill="#fff"/><path d="M118.337 60.555c0 31.192-25.767 56.571-57.669 56.571C28.769 117.126 3 91.747 3 60.556 3 29.362 28.767 3.983 60.669 3.983c31.9 0 57.668 25.38 57.668 56.571Z" fill="#fff" stroke="#F63C74" stroke-width="6"/><path d="M48.335 57.104v-3.75H46.46v3.75h1.875Zm0 8.366v-3.714H46.46v3.714h1.875Zm-14.1-3.714v3.714h1.767v-3.714h-1.767Zm7.898 0H40.33v3.714h1.803v-3.714Zm-1.803-4.652h1.803v-3.75H40.33v3.75Zm-6.095-3.75v3.75h1.767v-3.75h-1.767Zm-4.616 3.75v-1.515c-.505.47-.973.902-1.478 1.263-.974-.974-3.065-2.633-4.291-3.426 3.029-1.876 5.877-5.049 7.392-8.258l5.157 1.514c-.36.721-.721 1.407-1.154 2.092H56.34v4.58h-3.21v3.75h4.508v4.652H53.13v3.714h3.967v4.652H25.436V65.47h4.183v-3.714h-4.796v-4.652h4.796Zm-.144 22.358-5.085-2.02c1.515-1.514 3.066-4.363 3.859-6.995l5.12 1.226c-.757 2.812-2.235 5.805-3.894 7.789Zm5.373-7.573 4.869-.577c.468 2.236.901 5.157.937 6.96l-5.157.757c0-1.803-.252-4.832-.649-7.14Zm7.068.144 4.94-.83c.866 2.165 1.731 5.013 2.02 6.852l-5.265 1.01c-.18-1.803-.938-4.76-1.695-7.032Zm7.068-.18 5.049-1.55c1.55 2.235 3.534 5.3 4.435 7.356l-5.409 1.767c-.721-1.984-2.56-5.193-4.075-7.573Zm39.27-20.735-2.704 3.93c-1.081-1.406-3.606-3.39-5.59-4.724l2.525-3.534c1.984 1.19 4.58 2.993 5.77 4.328Zm-9.808 8.294 2.452-3.75c2.056 1.117 4.797 2.884 6.095 4.219l-2.633 4.183c-1.19-1.37-3.858-3.354-5.914-4.652Zm-10.06-3.606-3.86 1.046c-.035-2.344-.648-5.95-1.442-8.655l3.606-.938c.902 2.705 1.55 6.203 1.695 8.547ZM97.594 69.04l-4.147.757v9.593h-4.905v-8.691l-9.448 1.695-.72-4.508-2.958 3.823c-.469-1.046-1.226-2.416-2.02-3.787v11.396h-4.832V67.67c-1.045 3.101-2.308 6.058-3.678 8.15-.433-1.623-1.55-4.003-2.308-5.482 1.66-2.019 3.246-5.409 4.292-8.33H63.3V57.14h5.264V45.384h4.833v10.097c.649-2.38 1.37-5.914 1.695-8.438l4.363.901c-.938 3.03-1.983 6.491-2.849 8.691l-3.21-.865v1.37h5.013v4.868h-5.012v.145c1.082.901 4.075 4.183 5.012 5.3l10.133-1.803V45.132h4.905v19.653l3.39-.613.757 4.868Z" fill="#F63C74"/><path d="M597.81 57.861a1.55 1.55 0 0 1 0 2.223l-12.788 12.593a1.61 1.61 0 0 1-2.258 0 1.554 1.554 0 0 1 0-2.223l11.656-11.472-11.663-11.479a1.55 1.55 0 0 1 0-2.222 1.616 1.616 0 0 1 2.258 0l12.795 12.58Z" fill="#fff"/></g><defs><filter id="a" x="0" y=".984" width="622.12" height="126.332" filterUnits="userSpaceOnUse" color-interpolation-filters="sRGB"><feFlood flood-opacity="0" result="BackgroundImageFix"/><feColorMatrix in="SourceAlpha" values="0 0 0 0 0 0 0 0 0 0 0 0 0 0 0 0 0 0 127 0" result="hardAlpha"/><feOffset dy="7.19"/><feColorMatrix values="0 0 0 0 0.620833 0 0 0 0 0.909 0 0 0 0 1 0 0 0 1 0"/><feBlend in2="BackgroundImageFix" result="effect1_dropShadow_417_28000"/><feBlend in="SourceGraphic" in2="effect1_dropShadow_417_28000" result="shape"/></filter><filter id="c" x="74.267" y="15.592" width="550.769" height="95.832" filterUnits="userSpaceOnUse" color-interpolation-filters="sRGB"><feFlood flood-opacity="0" result="BackgroundImageFix"/><feColorMatrix in="SourceAlpha" values="0 0 0 0 0 0 0 0 0 0 0 0 0 0 0 0 0 0 127 0" result="hardAlpha"/><feOffset dy="2.916"/><feGaussianBlur stdDeviation="1.458"/><feComposite in2="hardAlpha" operator="out"/><feColorMatrix values="0 0 0 0 0 0 0 0 0 0 0 0 0 0 0 0 0 0 0.05 0"/><feBlend in2="BackgroundImageFix" result="effect1_dropShadow_417_28000"/><feBlend in="SourceGraphic" in2="effect1_dropShadow_417_28000" result="shape"/></filter><clipPath id="b"><path fill="#fff" d="M0 0h626v128H0z"/></clipPath></defs></svg>